<?xml version="1.0" encoding="UTF-8" standalone="no"?>
<svg
   xmlns:dc="http://purl.org/dc/elements/1.1/"
   xmlns:cc="http://creativecommons.org/ns#"
   xmlns:rdf="http://www.w3.org/1999/02/22-rdf-syntax-ns#"
   xmlns:svg="http://www.w3.org/2000/svg"
   xmlns="http://www.w3.org/2000/svg"
   xmlns:sodipodi="http://sodipodi.sourceforge.net/DTD/sodipodi-0.dtd"
   xmlns:inkscape="http://www.inkscape.org/namespaces/inkscape"
   id="svg2"
   viewBox="0 0 24 24"
   width="24"
   version="1.1"
   height="24"
   inkscape:version="0.91 r13725"
   sodipodi:docname="logo.svg">
  <sodipodi:namedview
     pagecolor="#ffffff"
     bordercolor="#666666"
     borderopacity="1"
     objecttolerance="10"
     gridtolerance="10"
     guidetolerance="10"
     inkscape:pageopacity="0"
     inkscape:pageshadow="2"
     inkscape:window-width="1920"
     inkscape:window-height="1018"
     id="namedview18"
     showgrid="false"
     inkscape:zoom="64"
     inkscape:cx="10.405848"
     inkscape:cy="14.359551"
     inkscape:window-x="-8"
     inkscape:window-y="-8"
     inkscape:window-maximized="1"
     inkscape:current-layer="svg2" />
  <metadata
     id="metadata34">
    <rdf:RDF>
      <cc:Work
         rdf:about="">
        <dc:format>image/svg+xml</dc:format>
        <dc:type
           rdf:resource="http://purl.org/dc/dcmitype/StillImage" />
        <dc:title />
      </cc:Work>
    </rdf:RDF>
  </metadata>
  <defs
     id="defs32" />
  <g
     id="g4"
     transform="translate(0 -1028.4)">
    <path
       style="fill:#e6e6e6"
       id="path6"
       fill="#bdc3c7"
       d="m5 1032.4c-1.1046 0-2 0.9-2 2v14c0 1.1 0.8954 2 2 2h6 2 6c1.105 0 2-0.9 2-2v-14c0-1.1-0.895-2-2-2h-6-2-6z" />
    <path
       style="fill:#ffffff"
       id="path8"
       transform="translate(0 1028.4)"
       fill="#ecf0f1"
       d="m5 3c-1.1046 0-2 0.8954-2 2v14c0 1.105 0.8954 2 2 2h6 2 6c1.105 0 2-0.895 2-2v-14c0-1.1046-0.895-2-2-2h-6-2-6z" />
    <path
       id="path10"
       d="m 5,1031.4 c -1.1046,0 -2,0.9 -2,2 l 0,3 c 6.1123618,0.5749 12.001821,0.3434 18,0.094 l 0,-3.0938 c 0,-1.1 -0.895,-2 -2,-2 l -6,0 -2,0 z"
       style="fill:#e74c3c;fill-opacity:1"
       inkscape:connector-curvature="0"
       sodipodi:nodetypes="ssccssccs" />
    <path
       id="path12"
       transform="translate(.5 1028.4)"
       fill="#c0392b"
       d="m7 5.5a1.5 1.5 0 1 1 -3 0 1.5 1.5 0 1 1 3 0z" />
    <path
       style="fill:#e6e6e6"
       id="path14"
       transform="translate(0 1028.4)"
       fill="#bdc3c7"
       d="m6 1c-0.5523 0-1 0.4477-1 1v3c0 0.5523 0.4477 1 1 1s1-0.4477 1-1v-3c0-0.5523-0.4477-1-1-1z" />
    <path
       id="path16"
       transform="translate(12.5 1028.4)"
       fill="#c0392b"
       d="m7 5.5a1.5 1.5 0 1 1 -3 0 1.5 1.5 0 1 1 3 0z" />
    <g
       id="g18"
       fill="#bdc3c7">
      <path
         style="fill:#e6e6e6"
         id="path20"
         d="m18 1029.4c-0.552 0-1 0.4-1 1v3c0 0.5 0.448 1 1 1s1-0.5 1-1v-3c0-0.6-0.448-1-1-1z" />
      <path
         style="fill:#e6e6e6"
         id="path22"
         d="m5 1039.4v2h2v-2h-2zm3 0v2h2v-2h-2zm3 0v2h2v-2h-2zm3 0v2h2v-2h-2zm3 0v2h2v-2h-2z" />
      <path
         style="fill:#e6e6e6"
         id="path24"
         d="m5 1042.4v2h2v-2h-2zm3 0v2h2v-2h-2zm3 0v2h2v-2h-2zm3 0v2h2v-2h-2zm3 0v2h2v-2h-2z" />
      <path
         style="fill:#e6e6e6"
         id="path26"
         d="m5 1045.4v2h2v-2h-2zm3 0v2h2v-2h-2zm3 0v2h2v-2h-2zm3 0v2h2v-2h-2zm3 0v2h2v-2h-2z" />
    </g>
    <rect
       id="rect28"
       y="8"
       x="3"
       width="18"
       transform="translate(0 1028.4)"
       height="1"
       fill="#c0392b" />
  </g>
</svg>
